<?xml version="1.0" encoding="UTF-8" standalone="no"?>
<!DOCTYPE svg PUBLIC "-//W3C//DTD SVG 1.1//EN" "http://www.w3.org/Graphics/SVG/1.1/DTD/svg11.dtd">
<!-- Generated by Microsoft Visio, SVG Export triacdrv_rectified_sine.svg Page-1 -->
<svg xmlns="http://www.w3.org/2000/svg" xmlns:xlink="http://www.w3.org/1999/xlink" xmlns:ev="http://www.w3.org/2001/xml-events"
		width="9.39219in" height="4.71084in" viewBox="0 0 676.238 339.18" xml:space="preserve" color-interpolation-filters="sRGB"
		class="st9">
	<style type="text/css">
	<![CDATA[
		.st1 {marker-end:url(#mrkr4-6);stroke:#000000;stroke-dasharray:7,5;stroke-linecap:round;stroke-linejoin:round;stroke-width:1}
		.st2 {fill:#000000;fill-opacity:1;stroke:#000000;stroke-opacity:1;stroke-width:0.28409090909091}
		.st3 {stroke:#000000;stroke-linecap:round;stroke-linejoin:round;stroke-opacity:0.5;stroke-width:1}
		.st4 {fill:#ffffff;stroke:none;stroke-linecap:butt}
		.st5 {fill:#000000;font-family:Calibri;font-size:1.00001em}
		.st6 {font-size:1em}
		.st7 {stroke:#000000;stroke-linecap:round;stroke-linejoin:round;stroke-width:2}
		.st8 {fill:#ffffff;stroke:none;stroke-linecap:butt;stroke-width:7.2}
		.st9 {fill:none;fill-rule:evenodd;font-size:12px;overflow:visible;stroke-linecap:square;stroke-miterlimit:3}
	]]>
	</style>

	<defs id="Markers">
		<g id="lend4">
			<path d="M 2 1 L 0 0 L 2 -1 L 2 1 " style="stroke:none"/>
		</g>
		<marker id="mrkr4-6" class="st2" refX="-7.04" orient="auto" markerUnits="strokeWidth" overflow="visible">
			<use xlink:href="#lend4" transform="scale(-3.52,-3.52) "/>
		</marker>
	</defs>
	<g>
		<title>Page-1</title>
		<g id="shape3-1" transform="translate(-273.176,313.309) rotate(-90)">
			<title>Sheet.3</title>
			<path d="M0 339.18 L280.4 339.18" class="st1"/>
		</g>
		<g id="shape15-7" transform="translate(62.9291,-255.822)">
			<title>Sheet.15</title>
			<desc>AVDD (IOVDD)</desc>
			<path d="M0 339.18 L6.15 339.18" class="st3"/>
			<rect x="-39.2992" y="324.78" width="39.8205" height="28.8001" class="st4"/>
			<text x="-33.65" y="335.58" class="st5">AVDD <tspan x="-39.3" dy="1.2em" class="st6">(</tspan>IOVDD)</text>		</g>
		<g id="shape2-13" transform="translate(66.0047,-83.3586)">
			<title>Sheet.2</title>
			<path d="M0 339.18 L577.32 339.18" class="st1"/>
		</g>
		<g id="shape5-18" transform="translate(66.0047,-83.3586)">
			<title>Sheet.5</title>
			<path d="M0 339.18 L2.38 330.09 L7.94 309.49 L14.93 284.55 L22.23 259.76 L29.16 237.63 L35.4 219.24 L40.91 204.66 L45.84
						 193.35 L50.39 184.54 L54.78 177.62 L59.11 172.2 L63.43 168.19 L69.2 166.72" class="st7"/>
		</g>
		<g id="shape6-21" transform="translate(135.206,-83.3586)">
			<title>Sheet.6</title>
			<path d="M69.2 339.18 L66.82 330.09 L61.26 309.49 L54.27 284.55 L46.97 259.76 L40.04 237.63 L33.8 219.24 L28.29 204.66
						 L23.36 193.35 L18.81 184.54 L14.42 177.62 L10.09 172.2 L5.77 168.19 L0 166.72" class="st7"/>
		</g>
		<g id="shape52-24" transform="translate(342.808,-83.3586)">
			<title>Sheet.52</title>
			<path d="M0 339.18 L2.38 330.09 L7.94 309.49 L14.93 284.55 L22.23 259.76 L29.16 237.63 L35.4 219.24 L40.91 204.66 L45.84
						 193.35 L50.39 184.54 L54.78 177.62 L59.11 172.2 L63.43 168.19 L69.2 166.72" class="st7"/>
		</g>
		<g id="shape53-27" transform="translate(412.009,-83.3586)">
			<title>Sheet.53</title>
			<path d="M69.2 339.18 L66.82 330.09 L61.26 309.49 L54.27 284.55 L46.97 259.76 L40.04 237.63 L33.8 219.24 L28.29 204.66
						 L23.36 193.35 L18.81 184.54 L14.42 177.62 L10.09 172.2 L5.77 168.19 L0 166.72" class="st7"/>
		</g>
		<g id="shape54-30" transform="translate(204.335,-83.3586)">
			<title>Sheet.54</title>
			<path d="M0 339.18 L138.47 339.18" class="st7"/>
		</g>
		<g id="shape56-33" transform="translate(481.139,-83.3586)">
			<title>Sheet.56</title>
			<path d="M0 339.18 L138.47 339.18" class="st7"/>
		</g>
		<g id="shape57-36" transform="translate(62.9291,-83.3586)">
			<title>Sheet.57</title>
			<desc>GND</desc>
			<path d="M0 339.18 L6.15 339.18" class="st3"/>
			<rect x="-30.7386" y="331.98" width="22.6994" height="14.4001" class="st8"/>
			<text x="-30.74" y="342.78" class="st5">GND</text>		</g>
	</g>
</svg>
