<?xml version="1.0" encoding="UTF-8" standalone="no"?>
<!DOCTYPE svg PUBLIC "-//W3C//DTD SVG 1.1//EN" "http://www.w3.org/Graphics/SVG/1.1/DTD/svg11.dtd">
<!-- Generated by Microsoft Visio, SVG Export triacdrv_ac_sine.svg Page-1 -->
<svg xmlns="http://www.w3.org/2000/svg" xmlns:xlink="http://www.w3.org/1999/xlink" xmlns:ev="http://www.w3.org/2001/xml-events"
		width="9.3416in" height="4.71084in" viewBox="0 0 672.595 339.18" xml:space="preserve" color-interpolation-filters="sRGB"
		class="st5">
	<style type="text/css">
	<![CDATA[
		.st1 {marker-end:url(#mrkr4-6);stroke:#000000;stroke-dasharray:7,5;stroke-linecap:round;stroke-linejoin:round;stroke-width:1}
		.st2 {fill:#000000;fill-opacity:1;stroke:#000000;stroke-opacity:1;stroke-width:0.28409090909091}
		.st3 {stroke:#000000;stroke-linecap:round;stroke-linejoin:round;stroke-width:2}
		.st4 {stroke:#000000;stroke-linecap:round;stroke-linejoin:round;stroke-opacity:0.5;stroke-width:1}
		.st5 {fill:none;fill-rule:evenodd;font-size:12px;overflow:visible;stroke-linecap:square;stroke-miterlimit:3}
	]]>
	</style>

	<defs id="Markers">
		<g id="lend4">
			<path d="M 2 1 L 0 0 L 2 -1 L 2 1 " style="stroke:none"/>
		</g>
		<marker id="mrkr4-6" class="st2" refX="-7.04" orient="auto" markerUnits="strokeWidth" overflow="visible">
			<use xlink:href="#lend4" transform="scale(-3.52,-3.52) "/>
		</marker>
	</defs>
	<g>
		<title>Page-1</title>
		<g id="shape2-1" transform="translate(31.6063,-169.59)">
			<title>Sheet.2</title>
			<path d="M0 339.18 L608.08 339.18" class="st1"/>
		</g>
		<g id="shape3-7" transform="translate(-276.818,313.309) rotate(-90)">
			<title>Sheet.3</title>
			<path d="M0 339.18 L280.4 339.18" class="st1"/>
		</g>
		<g id="group4-12" transform="translate(62.3622,-83.3586)">
			<title>Sheet.4</title>
			<g id="shape5-13" transform="translate(0,-86.2315)">
				<title>Sheet.5</title>
				<path d="M0 339.18 L2.79 333.87 L9.15 322.15 L16.93 308.41 L24.82 295.25 L32.09 283.98 L38.49 275.01 L44.1 268.16
							 L49.17 262.96 L53.99 258.97 L58.72 255.91 L63.43 253.69 L69.2 252.95" class="st3"/>
			</g>
			<g id="shape6-16" transform="translate(69.2008,-86.2315)">
				<title>Sheet.6</title>
				<path d="M69.2 339.18 L66.41 333.87 L60.05 322.15 L52.27 308.41 L44.38 295.25 L37.11 283.98 L30.71 275.01 L25.1 268.16
							 L20.03 262.96 L15.21 258.97 L10.49 255.91 L5.77 253.69 L0 252.95" class="st3"/>
			</g>
			<g id="shape7-19" transform="translate(138.402,0)">
				<title>Sheet.7</title>
				<path d="M0 252.95 L2.79 258.26 L9.15 269.98 L16.93 283.72 L24.82 296.88 L32.09 308.15 L38.49 317.12 L44.1 323.97
							 L49.17 329.17 L53.99 333.16 L58.72 336.22 L63.43 338.44 L69.2 339.18" class="st3"/>
			</g>
			<g id="shape8-22" transform="translate(207.602,0)">
				<title>Sheet.8</title>
				<path d="M69.2 252.95 L66.41 258.26 L60.05 269.98 L52.27 283.72 L44.38 296.88 L37.11 308.15 L30.71 317.12 L25.1 323.97
							 L20.03 329.17 L15.21 333.16 L10.49 336.22 L5.77 338.44 L0 339.18" class="st3"/>
			</g>
		</g>
		<g id="shape15-25" transform="translate(62.3622,-255.822)">
			<title>Sheet.15</title>
			<path d="M0 339.18 L6.15 339.18" class="st4"/>
		</g>
		<g id="shape16-28" transform="translate(62.3622,-83.3586)">
			<title>Sheet.16</title>
			<path d="M0 339.18 L6.15 339.18" class="st4"/>
		</g>
		<g id="group42-31" transform="translate(339.165,-83.3586)">
			<title>Sheet.42</title>
			<g id="shape43-32" transform="translate(0,-86.2315)">
				<title>Sheet.43</title>
				<path d="M0 339.18 L2.79 333.87 L9.15 322.15 L16.93 308.41 L24.82 295.25 L32.09 283.98 L38.49 275.01 L44.1 268.16
							 L49.17 262.96 L53.99 258.97 L58.72 255.91 L63.43 253.69 L69.2 252.95" class="st3"/>
			</g>
			<g id="shape44-35" transform="translate(69.2008,-86.2315)">
				<title>Sheet.44</title>
				<path d="M69.2 339.18 L66.41 333.87 L60.05 322.15 L52.27 308.41 L44.38 295.25 L37.11 283.98 L30.71 275.01 L25.1 268.16
							 L20.03 262.96 L15.21 258.97 L10.49 255.91 L5.77 253.69 L0 252.95" class="st3"/>
			</g>
			<g id="shape45-38" transform="translate(138.402,0)">
				<title>Sheet.45</title>
				<path d="M0 252.95 L2.79 258.26 L9.15 269.98 L16.93 283.72 L24.82 296.88 L32.09 308.15 L38.49 317.12 L44.1 323.97
							 L49.17 329.17 L53.99 333.16 L58.72 336.22 L63.43 338.44 L69.2 339.18" class="st3"/>
			</g>
			<g id="shape46-41" transform="translate(207.602,0)">
				<title>Sheet.46</title>
				<path d="M69.2 252.95 L66.41 258.26 L60.05 269.98 L52.27 283.72 L44.38 296.88 L37.11 308.15 L30.71 317.12 L25.1 323.97
							 L20.03 329.17 L15.21 333.16 L10.49 336.22 L5.77 338.44 L0 339.18" class="st3"/>
			</g>
		</g>
	</g>
</svg>
