<?xml version="1.0" encoding="UTF-8" standalone="no"?>
<!DOCTYPE svg PUBLIC "-//W3C//DTD SVG 1.1//EN" "http://www.w3.org/Graphics/SVG/1.1/DTD/svg11.dtd">
<!-- Generated by Microsoft Visio, SVG Export triacdrv_files.svg Page-1 -->
<svg xmlns="http://www.w3.org/2000/svg" xmlns:xlink="http://www.w3.org/1999/xlink" xmlns:ev="http://www.w3.org/2001/xml-events"
		width="5.0345in" height="3.26285in" viewBox="0 0 362.484 234.925" xml:space="preserve" color-interpolation-filters="sRGB"
		class="st8">
	<style type="text/css">
	<![CDATA[
		.st1 {fill:none;stroke:none;stroke-width:0.25}
		.st2 {fill:#000000;font-family:Consolas;font-size:1.16666em}
		.st3 {marker-end:url(#mrkr4-12);stroke:#000000;stroke-linecap:round;stroke-linejoin:round;stroke-width:1}
		.st4 {fill:#000000;fill-opacity:1;stroke:#000000;stroke-opacity:1;stroke-width:0.28409090909091}
		.st5 {visibility:visible}
		.st6 {fill:none;filter:url(#filter_2);stroke:none}
		.st7 {fill:#5b9bd5;filter:url(#filter_2);font-family:Consolas;font-size:1.16666em;opacity:0.219608}
		.st8 {fill:none;fill-rule:evenodd;font-size:12px;overflow:visible;stroke-linecap:square;stroke-miterlimit:3}
	]]>
	</style>

	<defs id="Markers">
		<g id="lend4">
			<path d="M 2 1 L 0 0 L 2 -1 L 2 1 " style="stroke:none"/>
		</g>
		<marker id="mrkr4-12" class="st4" refX="-7.04" orient="auto" markerUnits="strokeWidth" overflow="visible">
			<use xlink:href="#lend4" transform="scale(-3.52,-3.52) "/>
		</marker>
	</defs>
	<defs id="Filters">
		<filter id="filter_2">
			<feGaussianBlur stdDeviation="2"/>
		</filter>
	</defs>
	<g>
		<title>Page-1</title>
		<g id="shape1-1" transform="translate(18.25,-188.329)">
			<title>Rectangle</title>
			<desc>Drivers</desc>
			<rect x="0" y="206.579" width="70.8661" height="28.3465" class="st1"/>
			<text x="8.49" y="224.95" class="st2">Drivers</text>		</g>
		<g id="shape2-4" transform="translate(89.1161,-159.982)">
			<title>Rectangle.2</title>
			<desc>triac</desc>
			<rect x="0" y="206.579" width="70.8661" height="28.3465" class="st1"/>
			<text x="11.7" y="224.95" class="st2">triac</text>		</g>
		<g id="shape3-7" transform="translate(53.6831,-188.329)">
			<title>Dynamic connector</title>
			<path d="M0 234.93 L0 249.1 L28.39 249.1" class="st3"/>
		</g>
		<g id="shape4-13" transform="translate(159.982,-131.636)">
			<title>Rectangle.4</title>
			<desc>inc</desc>
			<rect x="0" y="206.579" width="42.5197" height="28.3465" class="st1"/>
			<text x="9.71" y="224.95" class="st2">inc</text>		</g>
		<g id="shape5-16" transform="translate(124.549,-159.982)">
			<title>Dynamic connector.5</title>
			<path d="M0 234.93 L0 249.1 L28.39 249.1" class="st3"/>
		</g>
		<g id="shape8-21" transform="translate(202.502,-103.289)">
			<title>Rectangle.8</title>
			<desc>triacdrv.h</desc>
			<rect x="0" y="206.579" width="85.0394" height="28.3465" class="st1"/>
			<text x="4" y="224.95" class="st2">triacdrv.h</text>		</g>
		<g id="shape9-24" transform="translate(181.242,-131.636)">
			<title>Dynamic connector.9</title>
			<path d="M0 234.93 L0 249.1 L14.22 249.1" class="st3"/>
		</g>
		<g id="shape10-29" transform="translate(159.982,-74.9429)">
			<title>Rectangle.10</title>
			<desc>src</desc>
			<g id="shadow10-30" transform="matrix(1,0,0,1,0.345598,1.97279)" class="st5">
				<rect x="0" y="206.579" width="42.5197" height="28.3465" class="st6"/>
				<text x="9.71" y="224.95" class="st7">src</text>			</g>
			<rect x="0" y="206.579" width="42.5197" height="28.3465" class="st1"/>
			<text x="9.71" y="224.95" class="st2">src</text>		</g>
		<g id="shape11-37" transform="translate(202.502,-46.5965)">
			<title>Rectangle.11</title>
			<desc>triacdrv_debug.h</desc>
			<rect x="0" y="206.579" width="141.732" height="28.3465" class="st1"/>
			<text x="4" y="224.95" class="st2">triacdrv_debug.h</text>		</g>
		<g id="shape12-40" transform="translate(202.502,-18.25)">
			<title>Rectangle.12</title>
			<desc>triacdrv.h</desc>
			<rect x="0" y="206.579" width="85.0394" height="28.3465" class="st1"/>
			<text x="4" y="224.95" class="st2">triacdrv.h</text>		</g>
		<g id="shape13-43" transform="translate(124.549,-159.982)">
			<title>Dynamic connector.13</title>
			<path d="M0 234.93 L0 305.79 L28.39 305.79" class="st3"/>
		</g>
		<g id="shape14-48" transform="translate(181.242,-74.9429)">
			<title>Dynamic connector.14</title>
			<path d="M0 234.93 L0 249.1 L14.22 249.1" class="st3"/>
		</g>
		<g id="shape15-53" transform="translate(181.242,-74.9429)">
			<title>Dynamic connector.15</title>
			<path d="M0 234.93 L0 277.44 L14.22 277.44" class="st3"/>
		</g>
	</g>
</svg>
