<?xml version="1.0" encoding="UTF-8" standalone="no"?>
<!DOCTYPE svg PUBLIC "-//W3C//DTD SVG 1.1//EN" "http://www.w3.org/Graphics/SVG/1.1/DTD/svg11.dtd">
<!-- Generated by Microsoft Visio, SVG Export triacdrv_diagram.svg Page-1 -->
<svg xmlns="http://www.w3.org/2000/svg" xmlns:xlink="http://www.w3.org/1999/xlink" xmlns:ev="http://www.w3.org/2001/xml-events"
		width="11.4107in" height="4.10478in" viewBox="0 0 821.568 295.544" xml:space="preserve" color-interpolation-filters="sRGB"
		class="st15">
	<style type="text/css">
	<![CDATA[
		.st1 {visibility:visible}
		.st2 {fill:none;filter:url(#filter_2);stroke:#5b9bd5;stroke-dasharray:14,10;stroke-opacity:0.22}
		.st3 {fill:#5b9bd5;filter:url(#filter_2);font-family:Calibri;font-size:1.33333em;font-weight:bold;opacity:0.219608}
		.st4 {fill:none;stroke:#a5a5a5;stroke-dasharray:14,10;stroke-width:2}
		.st5 {fill:#a5a5a5;font-family:Calibri;font-size:1.33333em;font-weight:bold}
		.st6 {marker-end:url(#mrkr4-14);stroke:#000000;stroke-linecap:round;stroke-linejoin:round;stroke-width:2}
		.st7 {fill:#000000;fill-opacity:1;stroke:#000000;stroke-opacity:1;stroke-width:0.44247787610619}
		.st8 {fill:#ffffff;stroke:none;stroke-linecap:butt;stroke-width:7.2}
		.st9 {fill:#0000c0;font-family:Consolas;font-size:0.75em}
		.st10 {fill:#5b9bd5;fill-opacity:0.22;filter:url(#filter_2);stroke:#5b9bd5;stroke-opacity:0.22}
		.st11 {fill:#5b9bd5;stroke:#c7c8c8;stroke-width:0.25}
		.st12 {fill:#feffff;font-family:Calibri;font-size:1.16666em;font-weight:bold}
		.st13 {fill:#ffffff;stroke:#f3f6fa;stroke-width:0.75}
		.st14 {font-size:1em}
		.st15 {fill:none;fill-rule:evenodd;font-size:12px;overflow:visible;stroke-linecap:square;stroke-miterlimit:3}
	]]>
	</style>

	<defs id="Markers">
		<g id="lend4">
			<path d="M 2 1 L 0 0 L 2 -1 L 2 1 " style="stroke:none"/>
		</g>
		<marker id="mrkr4-14" class="st7" refX="-4.52" orient="auto" markerUnits="strokeWidth" overflow="visible">
			<use xlink:href="#lend4" transform="scale(-2.26,-2.26) "/>
		</marker>
	</defs>
	<defs id="Filters">
		<filter id="filter_2">
			<feGaussianBlur stdDeviation="2"/>
		</filter>
	</defs>
	<g>
		<title>Page-1</title>
		<g id="shape89-1" transform="translate(56.4535,-23.9728)">
			<title>Sheet.89</title>
			<desc>TRIACDRV</desc>
			<g id="shadow89-2" transform="matrix(1,0,0,1,0.345598,1.97279)" class="st1">
				<path d="M0 295.54 L708.66 295.54 L708.66 68.77 L0 68.77 L0 295.54 Z" class="st2"/>
				<text x="320.37" y="62.23" class="st3">TRIACDRV</text>			</g>
			<path d="M0 295.54 L708.66 295.54 L708.66 68.77 L0 68.77 L0 295.54 Z" class="st4"/>
			<text x="320.37" y="62.23" class="st5">TRIACDRV</text>		</g>
		<g id="shape10-9" transform="translate(28.107,-130.272)">
			<title>Dynamic connector.10</title>
			<desc>acmpInput</desc>
			<path d="M0 288.46 L132.69 288.46" class="st6"/>
			<rect x="75.5463" y="273.058" width="44.5342" height="10.7998" class="st8"/>
			<text x="75.55" y="281.16" class="st9">acmpInput</text>		</g>
		<g id="shape5-17" transform="translate(254.879,-130.272)">
			<title>Dynamic connector</title>
			<desc>acmpPrsChannel</desc>
			<path d="M0 288.46 L104.35 288.46" class="st6"/>
			<rect x="22.7537" y="273.016" width="69.2754" height="10.8789" class="st8"/>
			<text x="22.75" y="281.18" class="st9">acmpPrsChannel</text>		</g>
		<g id="shape14-24" transform="translate(205.272,-208.225)">
			<title>Dynamic connector.14</title>
			<desc>zeroThreshold</desc>
			<path d="M7.09 295.54 L7.09 314.85" class="st6"/>
			<rect x="-25.077" y="280.103" width="64.3271" height="10.8789" class="st8"/>
			<text x="-25.08" y="288.26" class="st9">zeroThreshold</text>		</g>
		<g id="shape2-31" transform="translate(169.839,-94.8389)">
			<title>Round Corner Rectangle</title>
			<desc>acmp</desc>
			<g id="shadow2-32" transform="matrix(1,0,0,1,0.345598,1.97279)" class="st1">
				<path d="M8.5 295.54 L76.54 295.54 A8.5038 8.5038 -180 0 0 85.04 287.04 L85.04 219.01 A8.5038 8.5038 -180 0 0 76.54
							 210.5 L8.5 210.5 A8.5038 8.5038 -180 0 0 0 219.01 L0 287.04 A8.5038 8.5038 -180 0 0 8.5 295.54 Z"
						class="st10"/>
			</g>
			<path d="M8.5 295.54 L76.54 295.54 A8.5038 8.5038 -180 0 0 85.04 287.04 L85.04 219.01 A8.5038 8.5038 -180 0 0 76.54 210.5
						 L8.5 210.5 A8.5038 8.5038 -180 0 0 0 219.01 L0 287.04 A8.5038 8.5038 -180 0 0 8.5 295.54 Z" class="st11"/>
			<text x="26.68" y="257.22" class="st12">acmp</text>		</g>
		<g id="shape38-37" transform="translate(368.265,-130.272)">
			<title>Round Corner Rectangle.38</title>
			<g id="shadow38-38" transform="matrix(1,0,0,1,0,0)" class="st1"/>
			<path d="M8.5 295.54 L76.54 295.54 A8.5038 8.5038 -180 0 0 85.04 287.04 L85.04 261.53 A8.5038 8.5038 -180 0 0 76.54 253.02
						 L8.5 253.02 A8.5038 8.5038 -180 0 0 0 261.53 L0 287.04 A8.5038 8.5038 -180 0 0 8.5 295.54 Z" class="st13"/>
		</g>
		<g id="shape25-40" transform="translate(368.265,-101.926)">
			<title>Round Corner Rectangle.25</title>
			<g id="shadow25-41" transform="matrix(1,0,0,1,0,0)" class="st1"/>
			<path d="M8.5 295.54 L76.54 295.54 A8.5038 8.5038 -180 0 0 85.04 287.04 L85.04 261.53 A8.5038 8.5038 -180 0 0 76.54 253.02
						 L8.5 253.02 A8.5038 8.5038 -180 0 0 0 261.53 L0 287.04 A8.5038 8.5038 -180 0 0 8.5 295.54 Z" class="st13"/>
		</g>
		<g id="shape17-43" transform="translate(403.698,-208.225)">
			<title>Dynamic connector.17</title>
			<desc>pulseWidth</desc>
			<path d="M7.09 295.54 L7.09 314.85" class="st6"/>
			<rect x="-17.6546" y="280.103" width="49.4824" height="10.8789" class="st8"/>
			<text x="-17.65" y="288.26" class="st9">pulseWidth</text>		</g>
		<g id="shape22-50" transform="translate(403.698,-66.4925)">
			<title>Dynamic connector.22</title>
			<desc>initOn</desc>
			<path d="M7.09 295.54 L7.09 276.24" class="st6"/>
			<rect x="-7.75811" y="300.107" width="29.6895" height="10.8789" class="st8"/>
			<text x="-7.76" y="308.27" class="st9">initOn</text>		</g>
		<g id="shape41-57" transform="translate(453.304,-116.099)">
			<title>Dynamic connector.41</title>
			<desc>timerBasePrsChannel</desc>
			<path d="M0 288.46 L118.52 288.46" class="st6"/>
			<rect x="17.5571" y="273.016" width="94.0166" height="10.8789" class="st8"/>
			<text x="17.56" y="281.18" class="st9">timerBasePrsChannel</text>		</g>
		<g id="shape42-64" transform="translate(453.304,-144.445)">
			<title>Dynamic connector.42</title>
			<desc>timerBasePrsChannel + 1</desc>
			<path d="M0 288.46 L118.52 288.46" class="st6"/>
			<rect x="7.66058" y="273.016" width="113.81" height="10.8789" class="st8"/>
			<text x="7.66" y="281.18" class="st9">timerBasePrsChannel + 1</text>		</g>
		<g id="shape79-71" transform="translate(637.556,-130.272)">
			<title>Dynamic connector.79</title>
			<desc>timerPrsOutputPort timerPrsOutputPin timerPrsOutputLoc</desc>
			<path d="M0 288.46 L146.87 288.46" class="st6"/>
			<rect x="11.5769" y="251" width="89.0684" height="32.3998" class="st8"/>
			<text x="11.58" y="259.1" class="st9">timerPrsOutputPort <tspan x="14.05" dy="1.2em" class="st14">timerPrsOutputPin </tspan><tspan
						x="14.05" dy="1.2em" class="st14">timerPrsOutputLoc</tspan></text>		</g>
		<g id="shape72-80" transform="translate(580.863,-109.012)">
			<title>AND no pins</title>
			<desc>&#38;</desc>
			<g id="shadow72-81" transform="matrix(1,0,0,1,0.345598,1.97279)" class="st1">
				<path d="M28.35 295.54 L0 295.54 L0 238.85 L28.35 238.85 A28.3465 28.3465 0 0 1 28.35 295.54 Z" class="st10"/>
			</g>
			<path d="M28.35 295.54 L0 295.54 L0 238.85 L28.35 238.85 A28.3465 28.3465 0 0 1 28.35 295.54 Z" class="st11"/>
			<text x="23.41" y="271.4" class="st12">&#38;</text>		</g>
		<g id="shape3-86" transform="translate(368.265,-94.8389)">
			<title>Round Corner Rectangle.3</title>
			<desc>timer</desc>
			<g id="shadow3-87" transform="matrix(1,0,0,1,0.345598,1.97279)" class="st1">
				<path d="M8.5 295.54 L76.54 295.54 A8.5038 8.5038 -180 0 0 85.04 287.04 L85.04 219.01 A8.5038 8.5038 -180 0 0 76.54
							 210.5 L8.5 210.5 A8.5038 8.5038 -180 0 0 0 219.01 L0 287.04 A8.5038 8.5038 -180 0 0 8.5 295.54 Z"
						class="st10"/>
			</g>
			<path d="M8.5 295.54 L76.54 295.54 A8.5038 8.5038 -180 0 0 85.04 287.04 L85.04 219.01 A8.5038 8.5038 -180 0 0 76.54 210.5
						 L8.5 210.5 A8.5038 8.5038 -180 0 0 0 219.01 L0 287.04 A8.5038 8.5038 -180 0 0 8.5 295.54 Z" class="st11"/>
			<text x="26.67" y="257.22" class="st12">timer</text>		</g>
		<g id="shape90-92" transform="translate(205.272,-66.4925)">
			<title>Dynamic connector.90</title>
			<desc>avdd</desc>
			<path d="M7.09 295.54 L7.09 276.24" class="st6"/>
			<rect x="-2.80987" y="300.107" width="19.793" height="10.8789" class="st8"/>
			<text x="-2.81" y="308.27" class="st9">avdd</text>		</g>
	</g>
</svg>
