<?xml version="1.0" encoding="UTF-8" standalone="no"?>
<!DOCTYPE svg PUBLIC "-//W3C//DTD SVG 1.1//EN" "http://www.w3.org/Graphics/SVG/1.1/DTD/svg11.dtd">
<!-- Generated by Microsoft Visio, SVG Export triacdrv_offset_sine.svg Page-1 -->
<svg xmlns="http://www.w3.org/2000/svg" xmlns:xlink="http://www.w3.org/1999/xlink" xmlns:ev="http://www.w3.org/2001/xml-events"
		width="9.39219in" height="4.71084in" viewBox="0 0 676.238 339.18" xml:space="preserve" color-interpolation-filters="sRGB"
		class="st11">
	<style type="text/css">
	<![CDATA[
		.st1 {marker-end:url(#mrkr4-6);stroke:#000000;stroke-dasharray:7,5;stroke-linecap:round;stroke-linejoin:round;stroke-width:1}
		.st2 {fill:#000000;fill-opacity:1;stroke:#000000;stroke-opacity:1;stroke-width:0.28409090909091}
		.st3 {stroke:#000000;stroke-linecap:round;stroke-linejoin:round;stroke-opacity:0.5;stroke-width:1}
		.st4 {fill:#ffffff;stroke:none;stroke-linecap:butt}
		.st5 {fill:#000000;font-family:Calibri;font-size:1.00001em}
		.st6 {font-size:1em}
		.st7 {fill:#ffffff;stroke:none;stroke-linecap:butt;stroke-width:7.2}
		.st8 {stroke:#000000;stroke-linecap:round;stroke-linejoin:round;stroke-width:2}
		.st9 {stroke:none;stroke-linecap:round;stroke-linejoin:round;stroke-width:0.75}
		.st10 {fill:#000000;stroke:none;stroke-linecap:round;stroke-linejoin:round;stroke-width:0.75}
		.st11 {fill:none;fill-rule:evenodd;font-size:12px;overflow:visible;stroke-linecap:square;stroke-miterlimit:3}
	]]>
	</style>

	<defs id="Markers">
		<g id="lend4">
			<path d="M 2 1 L 0 0 L 2 -1 L 2 1 " style="stroke:none"/>
		</g>
		<marker id="mrkr4-6" class="st2" refX="-7.04" orient="auto" markerUnits="strokeWidth" overflow="visible">
			<use xlink:href="#lend4" transform="scale(-3.52,-3.52) "/>
		</marker>
	</defs>
	<g>
		<title>Page-1</title>
		<g id="shape3-1" transform="translate(-273.176,313.309) rotate(-90)">
			<title>Sheet.3</title>
			<path d="M0 339.18 L280.4 339.18" class="st1"/>
		</g>
		<g id="shape15-7" transform="translate(62.9291,-255.822)">
			<title>Sheet.15</title>
			<desc>AVDD (IOVDD)</desc>
			<path d="M0 339.18 L6.15 339.18" class="st3"/>
			<rect x="-39.2992" y="324.78" width="39.8205" height="28.8001" class="st4"/>
			<text x="-33.65" y="335.58" class="st5">AVDD <tspan x="-39.3" dy="1.2em" class="st6">(</tspan>IOVDD)</text>		</g>
		<g id="shape2-13" transform="translate(66.0047,-83.3586)">
			<title>Sheet.2</title>
			<path d="M0 339.18 L577.32 339.18" class="st1"/>
		</g>
		<g id="shape57-18" transform="translate(62.9291,-83.3586)">
			<title>Sheet.57</title>
			<desc>GND</desc>
			<path d="M0 339.18 L6.15 339.18" class="st3"/>
			<rect x="-30.7386" y="331.98" width="22.6994" height="14.4001" class="st7"/>
			<text x="-30.74" y="342.78" class="st5">GND</text>		</g>
		<g id="group69-23" transform="translate(66.0047,-83.3586)">
			<title>Sheet.69</title>
			<g id="shape59-24" transform="translate(-3.9968E-015,-86.2315)">
				<title>Sheet.59</title>
				<path d="M0 339.18 L2.79 333.87 L9.15 322.15 L16.93 308.41 L24.82 295.25 L32.09 283.98 L38.49 275.01 L44.1 268.16
							 L49.17 262.96 L53.99 258.97 L58.72 255.91 L63.43 253.69 L69.2 252.95" class="st8"/>
			</g>
			<g id="shape60-27" transform="translate(69.2008,-86.2315)">
				<title>Sheet.60</title>
				<path d="M69.2 339.18 L66.41 333.87 L60.05 322.15 L52.27 308.41 L44.38 295.25 L37.11 283.98 L30.71 275.01 L25.1 268.16
							 L20.03 262.96 L15.21 258.97 L10.49 255.91 L5.77 253.69 L0 252.95" class="st8"/>
			</g>
			<g id="shape61-30" transform="translate(138.402,0)">
				<title>Sheet.61</title>
				<path d="M0 252.95 L2.79 258.26 L9.15 269.98 L16.93 283.72 L24.82 296.88 L32.09 308.15 L38.49 317.12 L44.1 323.97
							 L49.17 329.17 L53.99 333.16 L58.72 336.22 L63.43 338.44 L69.2 339.18" class="st8"/>
			</g>
			<g id="shape62-33" transform="translate(207.602,0)">
				<title>Sheet.62</title>
				<path d="M69.2 252.95 L66.41 258.26 L60.05 269.98 L52.27 283.72 L44.38 296.88 L37.11 308.15 L30.71 317.12 L25.1 323.97
							 L20.03 329.17 L15.21 333.16 L10.49 336.22 L5.77 338.44 L0 339.18" class="st8"/>
			</g>
			<g id="shape64-36" transform="translate(276.803,-86.2315)">
				<title>Sheet.64</title>
				<path d="M0 339.18 L2.79 333.87 L9.15 322.15 L16.93 308.41 L24.82 295.25 L32.09 283.98 L38.49 275.01 L44.1 268.16
							 L49.17 262.96 L53.99 258.97 L58.72 255.91 L63.43 253.69 L69.2 252.95" class="st8"/>
			</g>
			<g id="shape65-39" transform="translate(346.004,-86.2315)">
				<title>Sheet.65</title>
				<path d="M69.2 339.18 L66.41 333.87 L60.05 322.15 L52.27 308.41 L44.38 295.25 L37.11 283.98 L30.71 275.01 L25.1 268.16
							 L20.03 262.96 L15.21 258.97 L10.49 255.91 L5.77 253.69 L0 252.95" class="st8"/>
			</g>
			<g id="shape66-42" transform="translate(415.205,0)">
				<title>Sheet.66</title>
				<path d="M0 252.95 L2.79 258.26 L9.15 269.98 L16.93 283.72 L24.82 296.88 L32.09 308.15 L38.49 317.12 L44.1 323.97
							 L49.17 329.17 L53.99 333.16 L58.72 336.22 L63.43 338.44 L69.2 339.18" class="st8"/>
			</g>
			<g id="shape67-45" transform="translate(484.406,0)">
				<title>Sheet.67</title>
				<path d="M69.2 252.95 L66.41 258.26 L60.05 269.98 L52.27 283.72 L44.38 296.88 L37.11 308.15 L30.71 317.12 L25.1 323.97
							 L20.03 329.17 L15.21 333.16 L10.49 336.22 L5.77 338.44 L0 339.18" class="st8"/>
			</g>
		</g>
		<g id="shape70-48" transform="translate(62.9291,-169.59)">
			<title>Sheet.70</title>
			<path d="M0 339.18 L6.15 339.18" class="st3"/>
		</g>
		<g id="group78-51" transform="translate(23.6277,-151.478)">
			<title>Sheet.78</title>
			<g id="shape73-52" transform="translate(-7.99361E-015,-17.1428)">
				<title>Sheet.73</title>
				<desc>AVDD</desc>
				<path d="M39.48 324.79 L0 324.79 L0 339.18 L39.48 339.18 L39.48 324.79" class="st9"/>
				<text x="5.48" y="335.59" class="st5">AVDD</text>			</g>
			<g id="shape74-56" transform="translate(14.4054,0)">
				<title>Sheet.74</title>
				<desc>2</desc>
				<path d="M10.67 324.79 L0 324.79 L0 339.18 L10.67 339.18 L10.67 324.79" class="st9"/>
				<text x="2.3" y="335.59" class="st5">2</text>			</g>
			<g id="shape75-60" transform="translate(3.70476,-17.2636)">
				<title>Sheet.75</title>
				<path d="M32.08 338.34 L0 338.34 L0 339.18 L32.08 339.18 L32.08 338.34 Z" class="st10"/>
			</g>
		</g>
	</g>
</svg>
